<svg width="1100" height="873" viewBox="0 0 1100 873" fill="none" xmlns="http://www.w3.org/2000/svg">
<path d="M930.65 302.529C930.65 283.876 925.212 273.772 910.452 262.891L573.305 8.7436C558.545 -2.91453 543.008 -2.91453 528.249 8.7436L379.873 120.662C301.412 94.2366 228.39 81.0241 169.35 81.0241C61.3701 81.0241 0 126.879 0 206.155C0 285.43 63.7006 388.799 170.904 494.499V720.667C170.904 735.434 181.003 745.538 195.763 745.538H521.257C677.401 828.699 823.446 873 929.873 873C1036.3 873 1100 827.145 1100 747.092C1100 667.04 1037.85 564.448 930.65 458.748V302.529ZM915.113 703.568C915.113 718.335 905.014 728.439 890.254 728.439H525.141C402.401 663.931 274.223 570.666 186.441 487.504V310.301C186.441 291.648 191.879 281.544 206.638 270.663L382.98 137.76C555.438 193.719 785.381 337.503 915.113 464.965V703.568Z" fill="white"/>
</svg>
