<svg width="371" height="63" viewBox="0 0 371 63" fill="none" xmlns="http://www.w3.org/2000/svg">
<path fill-rule="evenodd" clip-rule="evenodd" d="M155.475 34.9086C161.961 37.3007 165.699 38.6792 165.699 44.8328C165.699 50.48 161.705 54.1299 155.368 54.1299C149.029 54.1299 144.514 50.306 144.514 43.964V43.0944H135.312C135.312 55.4322 144.081 62.5574 155.368 62.5574C166.827 62.5574 174.902 54.1299 174.902 44.4849C174.902 39.5326 173.339 36.4045 170.735 33.6242C168.131 30.8447 164.917 29.1071 159.535 27.1082L156.061 25.8059C148.421 22.9373 145.99 20.7662 145.99 16.4214C145.99 11.4682 149.637 8.42746 155.28 8.42746C160.837 8.42746 164.744 11.4682 164.744 17.0297V18.159H173.946C173.946 7.03688 166.915 0 155.28 0C142.604 0 136.787 8.77532 136.787 16.5953C136.787 20.9384 138.177 24.0674 140.435 26.8478C142.691 29.6289 145.816 31.2791 150.418 33.0167L154.586 34.5804C154.888 34.6922 155.184 34.8014 155.475 34.9086ZM54.0025 0.868317L32.1232 36.2309L10.3313 0.868317H0V61.6881H8.68149V13.7263L28.1292 45.2667H36.1172L55.6523 13.7263V61.6881H64.3338V0.868317H54.0025ZM116.16 36.2319V0.870148H124.93V36.1437C124.93 52.7407 115.466 62.5579 101.227 62.5579C86.9891 62.5579 77.5259 52.7407 77.5259 36.1437V0.870148H86.2939V36.2319C86.2939 47.2666 92.0242 54.043 101.227 54.043C110.431 54.043 116.16 47.2666 116.16 36.2319ZM185.955 61.6891H194.811V0.870148H185.955V61.6891ZM216.951 61.6891V14.5978L248.554 61.6891H258.278V0.870148H249.596V48.2211L217.906 0.870148H208.269V61.6891H216.951ZM299.05 44.8328C299.05 38.6796 295.312 37.3009 288.827 34.9091C288.536 34.8017 288.239 34.6923 287.937 34.5804L283.77 33.0167C279.169 31.2791 276.043 29.6289 273.786 26.8478C271.528 24.0674 270.139 20.9384 270.139 16.5953C270.139 8.77532 275.956 0 288.633 0C300.266 0 307.299 7.03688 307.299 18.159H298.096V17.0297C298.096 11.4682 294.188 8.42746 288.633 8.42746C282.989 8.42746 279.342 11.4682 279.342 16.4214C279.342 20.7662 281.773 22.9373 289.413 25.8059L292.886 27.1082C298.269 29.1071 301.482 30.8447 304.086 33.6242C306.691 36.4045 308.253 39.5326 308.253 44.4849C308.253 54.1299 300.179 62.5574 288.72 62.5574C277.432 62.5574 268.663 55.4322 268.663 43.0944H277.866V43.964C277.866 50.306 282.381 54.1299 288.72 54.1299C295.056 54.1299 299.05 50.48 299.05 44.8328ZM355.2 44.7458H328.112L321.253 61.6881H312.31L336.881 0.868317H346.431L371 61.6881H362.058L355.2 44.7458ZM341.656 11.296L331.585 36.1448H351.727L341.656 11.296Z" fill="white"/>
</svg>
